<svg xmlns="http://www.w3.org/2000/svg" version="1.1" xmlns:xlink="http://www.w3.org/1999/xlink" width="1000" height="1000"><g clip-path="url(#SvgjsClipPath1015)"><rect width="1000" height="1000" fill="#ffffff"></rect><g transform="matrix(0.341796875,0,0,0.341796875,150,150)"><svg xmlns="http://www.w3.org/2000/svg" version="1.1" xmlns:xlink="http://www.w3.org/1999/xlink" width="2048" height="2048"><svg version="1.1" id="svg1" width="2048" height="2048" viewBox="0 0 2048 2048" sodipodi:docname="grayhavenlogo.svg" inkscape:version="1.4 (86a8ad7, 2024-10-11)" inkscape:export-filename="grayhavenlogo.svg" inkscape:export-xdpi="96" inkscape:export-ydpi="96" xmlns:inkscape="http://www.inkscape.org/namespaces/inkscape" xmlns:sodipodi="http://sodipodi.sourceforge.net/DTD/sodipodi-0.dtd" xmlns="http://www.w3.org/2000/svg" xmlns:svg="http://www.w3.org/2000/svg">
  <defs id="defs1"><clipPath id="SvgjsClipPath1015"><rect width="1000" height="1000" x="0" y="0" rx="350" ry="350"></rect></clipPath></defs>
  <sodipodi:namedview id="namedview1" pagecolor="#505050" bordercolor="#ffffff" borderopacity="1" inkscape:showpageshadow="0" inkscape:pageopacity="0" inkscape:pagecheckerboard="1" inkscape:deskcolor="#505050" showgrid="false" inkscape:zoom="0.39404297" inkscape:cx="1024" inkscape:cy="1024" inkscape:window-width="1920" inkscape:window-height="1009" inkscape:window-x="1912" inkscape:window-y="-8" inkscape:window-maximized="1" inkscape:current-layer="g1"></sodipodi:namedview>
  <g inkscape:groupmode="layer" inkscape:label="Image" id="g1">
    <path style="fill:#000000;stroke-width:1.48517" d="m 1032.3054,1996.0867 c -10.3587,-9.3875 -75.42932,-67.8323 -163.14073,-146.5292 -71.23239,-63.9115 -124.04939,-111.5064 -132.96726,-119.8204 -4.90106,-4.5692 -46.67152,-42.3081 -92.82322,-83.864 -46.15171,-41.556 -98.28123,-88.6197 -115.84338,-104.586 -17.56216,-15.9663 -62.00591,-56.0714 -98.76397,-89.1221 -36.75799,-33.0507 -99.41367,-89.4129 -139.23483,-125.2491 l -72.40212,-65.1566 V 654.46082 47.162334 H 396.83565 576.54147 V 200.87759 354.59285 H 721.3457 866.14992 V 200.87759 47.162334 h 178.96318 178.9631 V 200.87759 354.59285 h 144.0616 144.0617 V 200.87759 47.162334 h 179.7057 179.7059 V 655.23244 1263.3025 l -4.2378,3.4493 c -2.3307,1.8972 -24.2184,21.5143 -48.6392,43.5937 -53.734,48.5819 -195.6954,176.3177 -302.8302,272.4842 -150.1035,134.7363 -166.758,149.691 -245.7873,220.7016 -106.0505,95.29 -215.0847,192.7685 -224.3868,200.6054 -2.0396,1.7186 -3.8293,0.6454 -13.4244,-8.05 z m 83.4179,-579.8437 c 151.4262,-137.7376 236.0048,-215.2719 348.0761,-319.0851 26.8833,-24.9024 51.4443,-47.5013 54.58,-50.2195 l 5.7014,-4.9425 V 833.44492 c 0,-114.70296 -0.403,-208.55084 -0.8956,-208.55084 -0.4926,0 -4.3356,3.11465 -8.5398,6.92145 -4.2042,3.8068 -42.397,38.03507 -84.873,76.06281 -42.4758,38.02775 -99.9519,89.5767 -127.7246,114.55314 -27.7727,24.97657 -76.8948,69.05364 -109.1601,97.94899 -32.2654,28.89535 -76.7091,68.70159 -98.764,88.45823 -22.0547,19.7567 -42.5417,38.0376 -45.5264,40.6243 l -5.427,4.7031 -98.53516,-88.61785 C 890.4408,916.80849 816.034,849.79577 779.2867,816.63113 613.83473,667.3098 569.51512,627.56131 566.51656,625.80566 c -1.4816,-0.86738 -1.85646,41.0207 -1.85646,207.39881 v 208.48593 l 29.97877,27.3728 c 57.24297,52.2668 69.72614,63.711 211.29997,193.712 78.28145,71.8824 147.11916,135.0393 152.97282,140.3488 5.85365,5.3095 27.17893,24.8581 47.38954,43.4411 20.2109,18.5833 37.2406,33.7878 37.8439,33.7878 0.6035,0 32.8138,-28.8494 71.5782,-64.1099 z" id="path1"></path>
  </g>
</svg></svg></g></g></svg>